<svg width="166" height="24" viewBox="0 0 166 24" fill="none" xmlns="http://www.w3.org/2000/svg">
<g clip-path="url(#clip0_700_99)">
<path d="M-3.19922 0C-9.49526 0 -14.5992 5.10395 -14.5992 11.4V12.1031L-12.7992 13.9031V11.4C-12.7992 6.09804 -8.50118 1.8 -3.19922 1.8C2.10274 1.8 6.40078 6.09804 6.40078 11.4V13.9031L8.20078 12.1031V11.4C8.20078 5.10395 3.09682 0 -3.19922 0ZM-3.19922 6C-6.18158 6 -8.59922 8.41764 -8.59922 11.4V18.6299C-8.59922 18.9446 -8.85464 19.2 -9.16934 19.2C-9.32036 19.1999 -9.46507 19.1398 -9.57187 19.033L-15.1992 13.4057V15.951L-10.8445 20.3057C-10.4002 20.75 -9.79775 20.9999 -9.16934 21C-7.8605 21 -6.79922 19.9387 -6.79922 18.6299V11.4C-6.79922 9.41178 -5.18744 7.8 -3.19922 7.8C-1.211 7.8 0.400782 9.41178 0.400782 11.4V18.6299C0.400782 19.9387 1.46206 21 2.7709 21C3.39934 20.9999 4.00174 20.75 4.4461 20.3057L5.62474 19.1271L7.42474 17.3271L8.80078 15.951V13.4057L7.52812 14.6783L6.15202 16.0544L4.35202 17.8544L3.17344 19.033C3.06664 19.1398 2.92192 19.1999 2.7709 19.2C2.4562 19.2 2.20078 18.9446 2.20078 18.6299V11.4C2.20078 8.41764 -0.216858 6 -3.19922 6ZM-3.19922 9C-4.52468 9 -5.59922 10.0745 -5.59922 11.4V18.6299C-5.59922 20.6015 -7.19774 22.2 -9.16934 22.2C-10.116 22.1999 -11.0241 21.8241 -11.6936 21.1547L-15.1992 17.6485V20.1937L-12.9662 22.4273C-11.9592 23.4343 -10.5934 23.9999 -9.16934 24C-6.20366 24 -3.79922 21.5956 -3.79922 18.6299V11.4C-3.79922 11.0686 -3.5306 10.8 -3.19922 10.8C-2.86784 10.8 -2.59922 11.0686 -2.59922 11.4V18.6299C-2.59922 21.5956 -0.194778 24 2.7709 24C4.19494 23.9999 5.56078 23.4343 6.56776 22.4273L8.80078 20.1937V17.6485L5.2951 21.1547C4.62568 21.8241 3.71758 22.1999 2.7709 22.2C0.799301 22.2 -0.799218 20.6015 -0.799218 18.6299V11.4C-0.799218 10.0745 -1.87376 9 -3.19922 9ZM-3.19922 3C-7.83842 3 -11.5992 6.7608 -11.5992 11.4V15.1031L-9.79922 16.9031V11.4C-9.79922 7.75494 -6.84428 4.8 -3.19922 4.8C0.445842 4.8 3.40078 7.75494 3.40078 11.4V16.9031L5.20078 15.1031V11.4C5.20078 6.7608 1.43998 3 -3.19922 3Z" fill="#FF3902"/>
<path d="M143.789 6.6H148.109C149.669 6.6 151.157 7.032 152.429 7.776V6.6H156.749C161.525 6.6 165.389 10.488 165.389 15.24V18.12H162.509V15.24C162.509 12.072 159.917 9.48 156.749 9.48H155.309V10.464C156.221 11.832 156.749 13.488 156.749 15.24V18.12H153.869V15.24C153.869 12.072 151.277 9.48 148.109 9.48H146.669V18.12H143.789V6.6Z" fill="#040056"/>
<path d="M141.868 18.1439H133.228C128.452 18.1439 124.588 14.2799 124.588 9.50395V6.62395H127.468V9.50395C127.468 12.6719 130.036 15.2639 133.228 15.2639H138.988V6.62395H141.868V18.1439Z" fill="#040056"/>
<path d="M122.951 6.62395V9.50395H112.871C111.287 9.50395 109.991 10.7999 109.991 12.3839C109.991 13.9679 111.287 15.2639 112.871 15.2639H113.183C113.903 15.2639 114.623 15.0239 115.175 14.5679L117.503 12.6959L117.599 12.6479L118.511 11.9999C119.903 11.0159 121.823 11.1839 123.023 12.4079C124.511 13.8719 124.367 16.3199 122.735 17.6399L122.135 18.1439H117.551L120.935 15.4079C121.247 15.1679 121.247 14.7119 120.983 14.4239C120.767 14.2079 120.407 14.1839 120.167 14.3519L119.279 14.9759L116.975 16.7999C115.895 17.6639 114.575 18.1439 113.183 18.1439H112.871C109.703 18.1439 107.111 15.5519 107.111 12.3839C107.111 9.19195 109.703 6.62395 112.871 6.62395H122.951Z" fill="#040056"/>
<path d="M89.3848 6.6H100.905C104.073 6.6 106.665 9.192 106.665 12.36C106.665 15.552 104.073 18.12 100.905 18.12H99.8968C98.3608 18.12 96.8488 17.616 95.6488 16.656L92.2648 13.92V18.12H89.3848V6.6ZM92.2648 9.504V10.248L97.4488 14.4C98.1448 14.952 99.0088 15.264 99.8968 15.264H100.905C102.489 15.264 103.785 13.968 103.785 12.384C103.785 10.776 102.489 9.504 100.905 9.504H92.2648Z" fill="#040056"/>
<path d="M87.9503 18.12H85.0703V6.6H87.9503V18.12Z" fill="#040056"/>
<path d="M76.7792 15.24C79.1792 15.24 81.0992 13.32 81.0992 10.92V9.48H72.4592C70.8752 9.48 69.5792 10.776 69.5792 12.36C69.5792 13.968 70.8752 15.24 72.4592 15.24H76.7792ZM83.9792 6.6V10.92C83.9792 14.904 80.7632 18.12 76.7792 18.12H72.4592C69.2912 18.12 66.6992 15.552 66.6992 12.36C66.6992 9.192 69.2912 6.6 72.4592 6.6H83.9792Z" fill="#040056"/>
<path d="M65.7429 6.6V15.264C65.7429 16.32 65.3589 17.352 64.6389 18.12H60.0069L62.2869 16.416C62.6469 16.128 62.8629 15.696 62.8629 15.264V13.92L59.4789 16.656C58.2789 17.616 56.7669 18.12 55.2309 18.12H54.2229C51.0549 18.12 48.4629 15.552 48.4629 12.36C48.4629 9.192 51.0549 6.6 54.2229 6.6H65.7429ZM54.2229 9.48C52.6389 9.48 51.3429 10.776 51.3429 12.36C51.3429 13.968 52.6389 15.24 54.2229 15.24H55.2309C56.1189 15.24 56.9829 14.952 57.6789 14.4L62.8629 10.248V9.48H54.2229Z" fill="#040056"/>
<path d="M40.9159 15.24C43.3159 15.24 45.2359 13.32 45.2359 10.92V9.48H36.5959C35.0119 9.48 33.7159 10.776 33.7159 12.36C33.7159 13.968 35.0119 15.24 36.5959 15.24H40.9159ZM48.1159 6.6V10.92C48.1159 14.904 44.8999 18.12 40.9159 18.12H36.5959C33.4279 18.12 30.8359 15.552 30.8359 12.36C30.8359 9.192 33.4279 6.6 36.5959 6.6H48.1159Z" fill="#040056"/>
<path d="M18.6886 6.6V11.184C18.6886 11.568 18.8326 11.928 19.0966 12.192L20.8966 13.992C21.7126 14.808 22.7926 15.264 23.9446 15.264H30.2086V18.144H23.9446C22.0486 18.144 20.2006 17.376 18.8566 16.032L17.0566 14.232C16.2646 13.416 15.8086 12.312 15.8086 11.184V6.6H18.6886Z" fill="#040056"/>
</g>
<defs>
<clipPath id="clip0_700_99">
<rect width="180.6" height="24" fill="white" transform="translate(-15.1992)"/>
</clipPath>
</defs>
</svg>
