<svg width="129" height="24" viewBox="0 0 129 24" fill="none" xmlns="http://www.w3.org/2000/svg">
<g clip-path="url(#clip0_700_131)">
<path d="M12 0C15.1826 2.4028e-07 18.2351 1.26401 20.4856 3.51445C20.8894 3.91835 21.2612 4.34831 21.6 4.8H12C10.0904 4.8 8.25906 5.55853 6.90876 6.90876C5.55853 8.25906 4.8 10.0904 4.8 12H12L22.1461 5.5916C22.8994 6.78444 23.4367 8.10162 23.7328 9.48162L19.2 12H24L23.9965 12.2983C23.9201 15.3728 22.6656 18.3055 20.4856 20.4856C18.2351 22.736 15.1826 24 12 24C8.81742 24 5.76489 22.736 3.51445 20.4856C3.11056 20.0816 2.73875 19.6517 2.4 19.2H12C13.9096 19.2 15.7409 18.4415 17.0912 17.0912C18.3571 15.8253 19.103 14.1365 19.1912 12.3568L19.2 12H12L1.8539 18.4072C1.10071 17.2144 0.564601 15.8971 0.26836 14.5172L4.8 12H0C4.80559e-07 8.81742 1.26402 5.76489 3.51445 3.51445C5.76489 1.26402 8.81742 -3.47617e-10 12 0Z" fill="#0094F7"/>
<path d="M55.3645 18.266C55.9285 19.3234 57.017 19.9892 58.4201 19.9892C59.8231 19.9891 60.9112 19.3233 61.4752 18.266H63.586C62.8876 20.3789 60.9496 21.7915 58.4201 21.7916C55.8904 21.7916 53.9521 20.3789 53.2539 18.266H55.3645Z" fill="#003253"/>
<path fill-rule="evenodd" clip-rule="evenodd" d="M86.1022 7.05588C89.3182 7.05588 91.5712 9.26808 91.5712 12.443C91.5712 15.8023 89.0722 17.7076 86.4298 17.7076C84.7912 17.7076 83.3986 16.97 82.6612 15.6592V21.7629H80.7148V12.4635C80.7148 9.16566 82.9684 7.05588 86.1022 7.05588ZM86.1226 8.85822C84.0538 8.85822 82.6612 10.3332 82.6612 12.3814C82.6612 14.4298 84.0538 15.9047 86.1226 15.9047C88.2118 15.9047 89.605 14.4298 89.605 12.3814C89.605 10.3331 88.2118 8.85822 86.1226 8.85822Z" fill="#003253"/>
<path fill-rule="evenodd" clip-rule="evenodd" d="M46.8354 7.05588C50.0307 7.05588 52.2839 9.309 52.284 12.3814C52.284 15.454 50.0308 17.7076 46.8354 17.7076C43.64 17.7076 41.3867 15.454 41.3867 12.3814C41.3868 9.309 43.64 7.05588 46.8354 7.05588ZM46.8354 8.85822C44.7461 8.85822 43.3532 10.3331 43.3532 12.3814C43.3532 14.4298 44.7461 15.9047 46.8354 15.9047C48.9247 15.9047 50.3176 14.4298 50.3176 12.3814C50.3175 10.3331 48.9246 8.85822 46.8354 8.85822Z" fill="#003253"/>
<path fill-rule="evenodd" clip-rule="evenodd" d="M58.635 7.06056H63.9278V8.8008H62.5628C63.3896 9.72792 63.8678 10.9676 63.8678 12.3814C63.8678 15.4539 61.6148 17.7075 58.4194 17.7076C55.2239 17.7076 52.9707 15.454 52.9707 12.3814C52.9708 9.309 55.2239 7.05588 58.4194 7.05588C58.4917 7.05588 58.5636 7.05822 58.635 7.06056ZM58.4194 8.85822C56.3301 8.85822 54.9372 10.3331 54.9371 12.3814C54.9371 14.4298 56.33 15.9047 58.4194 15.9047C60.5084 15.9046 61.901 14.4297 61.901 12.3814C61.901 10.3333 60.5084 8.85834 58.4194 8.85822Z" fill="#003253"/>
<path fill-rule="evenodd" clip-rule="evenodd" d="M70.0052 7.05588C73.2002 7.05588 75.4538 9.309 75.4538 12.3814C75.4538 15.454 73.2008 17.7076 70.0052 17.7076C66.8096 17.7076 64.5566 15.454 64.5566 12.3814C64.5566 9.309 66.8096 7.05588 70.0052 7.05588ZM70.0052 8.85822C67.916 8.85822 66.5228 10.3331 66.5228 12.3814C66.5228 14.4298 67.916 15.9047 70.0052 15.9047C72.0944 15.9047 73.4876 14.4298 73.4876 12.3814C73.487 10.3331 72.0944 8.85822 70.0052 8.85822Z" fill="#003253"/>
<path d="M96.4889 7.05588C98.9063 7.05594 100.402 8.4285 100.442 10.1695H98.5163C98.4551 9.3912 97.7387 8.8173 96.5099 8.81718C95.2193 8.81718 94.4819 9.43218 94.4819 10.2311C94.4819 11.1935 95.5469 11.2959 96.7961 11.4598C98.5577 11.6851 100.708 12.0129 100.709 14.3273C100.709 16.3756 99.0497 17.7075 96.5099 17.7076C93.9695 17.7076 92.3717 16.3554 92.3105 14.5119H94.2767C94.3175 15.3517 95.0963 15.9457 96.5099 15.9457C97.9841 15.9456 98.7419 15.3107 98.7419 14.5119C98.7419 13.5492 97.6769 13.426 96.4073 13.2621C94.6457 13.0368 92.5151 12.7092 92.5151 10.3945C92.5151 8.40768 94.0721 7.05588 96.4889 7.05588Z" fill="#003253"/>
<path d="M103.79 12.6064C103.79 14.7982 104.999 15.9047 106.842 15.9047C108.686 15.9047 109.894 14.7982 109.894 12.6064V7.32185H111.84V12.6064C111.84 15.9658 109.833 17.707 106.842 17.707C103.851 17.707 101.844 15.9862 101.844 12.6064V7.32185H103.79V12.6064Z" fill="#003253"/>
<path d="M33.2887 15.5156H40.8062V17.441H31.1992V4.04472H33.2887V15.5156Z" fill="#003253"/>
<path d="M78.8657 17.441H76.9199V7.32185H78.8657V17.441Z" fill="#003253"/>
<path d="M124.657 7.05588C127.033 7.05588 128.836 8.48976 128.836 11.5828V17.441H126.889V11.5828C126.889 9.69846 125.886 8.85828 124.472 8.85822C123.1 8.85822 122.075 9.73926 122.075 11.5828V17.441H120.13V11.5828C120.13 9.73926 119.085 8.85822 117.713 8.85822C116.299 8.85828 115.295 9.6984 115.295 11.5828V17.441H113.35V11.5828C113.35 8.48976 115.153 7.05588 117.529 7.05588C119.085 7.05594 120.396 7.75242 121.092 9.0633C121.789 7.75236 123.079 7.05588 124.657 7.05588Z" fill="#003253"/>
<path d="M77.883 3C78.6612 3 79.2348 3.57346 79.2354 4.35176C79.2354 5.13014 78.6612 5.72461 77.883 5.72461C77.1048 5.72453 76.5312 5.13008 76.5312 4.35176C76.5312 3.57352 77.1048 3.00008 77.883 3Z" fill="#003253"/>
</g>
<defs>
<clipPath id="clip0_700_131">
<rect width="129" height="24" fill="white"/>
</clipPath>
</defs>
</svg>
