<svg width="144" height="24" viewBox="0 0 144 24" fill="none" xmlns="http://www.w3.org/2000/svg">
<path d="M117.898 6.27438H123.192L128.119 14.7733L133.063 6.27438H138.357V17.4362H135.869V6.38598L129.443 17.4362H126.812L120.37 6.38598V17.4362H117.898V6.27438Z" fill="#2E0368"/>
<path d="M101.953 13.099C100.071 13.099 98.5566 11.5842 98.5566 9.6867C98.5566 7.80516 100.071 6.27438 101.953 6.27438H116.383V8.76186H101.953C101.443 8.76186 101.028 9.17646 101.028 9.6867C101.028 10.2129 101.443 10.6275 101.953 10.6275H112.971C114.853 10.6275 116.383 12.1423 116.383 14.0398C116.383 15.9214 114.853 17.4362 112.971 17.4362H98.5566V14.9647H112.971C113.482 14.9647 113.896 14.5501 113.896 14.0398C113.896 13.5136 113.482 13.099 112.971 13.099H101.953Z" fill="#2E0368"/>
<path d="M92.9144 6.27438C95.306 6.27438 97.2519 8.2197 97.2519 10.6275C97.2519 13.0193 95.306 14.9647 92.9144 14.9647H81.7527V17.4362H79.2812V6.27438H92.9144ZM92.8983 12.4772C93.9351 12.4772 94.7643 11.648 94.7643 10.6275C94.7643 9.59106 93.9351 8.76186 92.8983 8.76186H81.7527V12.4772H92.8983Z" fill="#2E0368"/>
<path d="M65.9855 8.76186C64.2635 8.76186 62.8763 10.1491 62.8763 11.8553C62.8763 13.5774 64.2635 14.9647 65.9855 14.9647H75.2021V13.0193H65.7461V10.5478H77.6897V17.4362H65.9855C62.8919 17.4362 60.4043 14.9487 60.4043 11.8553C60.4043 8.77782 62.8919 6.27438 65.9855 6.27438H77.6897V8.76186H65.9855Z" fill="#2E0368"/>
<path d="M44.4004 17.4362V6.27438H46.872V14.9647H59.3573V17.4362H44.4004Z" fill="#2E0368"/>
<path d="M142.986 5.6506C142.986 6.45174 142.336 7.10124 141.535 7.10124C140.734 7.10124 140.084 6.45174 140.084 5.6506C140.084 4.84945 140.734 4.2 141.535 4.2C142.336 4.2 142.986 4.84945 142.986 5.6506Z" fill="#2E0368"/>
<path d="M19.1992 6H25.1992C28.5129 6 31.1992 8.68632 31.1992 12C31.1992 15.3137 28.5129 18 25.1992 18H21.5992V16.8H25.1992C27.8502 16.8 29.9992 14.651 29.9992 12C29.9992 9.34902 27.8502 7.2 25.1992 7.2H19.1992V13.2H25.1992C25.862 13.2 26.3992 12.6628 26.3992 12C26.3992 11.3372 25.862 10.8 25.1992 10.8H21.5992V9.6H25.1992C26.5247 9.6 27.5992 10.6745 27.5992 12C27.5992 13.3255 26.5247 14.4 25.1992 14.4H19.1992V20.4H25.1992C29.8384 20.4 33.5992 16.6392 33.5992 12C33.5992 7.3608 29.8384 3.6 25.1992 3.6H21.5992V2.4H25.1992C30.5012 2.4 34.7992 6.69804 34.7992 12C34.7992 17.302 30.5012 21.6 25.1992 21.6H19.1992V24H25.1992C31.8266 24 37.1992 18.6274 37.1992 12C37.1992 5.37259 31.8266 0 25.1992 0H19.1992V6Z" fill="#4D0DA2"/>
<path d="M12 0C5.37259 0 0 5.37259 0 12C0 18.6274 5.37259 24 12 24H18V18H12C8.68632 18 6 15.3137 6 12C6 8.68632 8.68632 6 12 6H15.6V7.2H12C9.34902 7.2 7.2 9.34902 7.2 12C7.2 14.651 9.34902 16.8 12 16.8H18V10.8H12C11.3372 10.8 10.8 11.3372 10.8 12C10.8 12.6628 11.3372 13.2 12 13.2H15.6V14.4H12C10.6745 14.4 9.6 13.3255 9.6 12C9.6 10.6745 10.6745 9.6 12 9.6H18V3.6H12C7.3608 3.6 3.6 7.3608 3.6 12C3.6 16.6392 7.3608 20.4 12 20.4H15.6V21.6H12C6.69804 21.6 2.4 17.302 2.4 12C2.4 6.69804 6.69804 2.4 12 2.4H18V0H12Z" fill="#4D0DA2"/>
</svg>
