<svg width="118" height="24" viewBox="0 0 118 24" fill="none" xmlns="http://www.w3.org/2000/svg">
<g clip-path="url(#clip0_700_156)">
<path fill-rule="evenodd" clip-rule="evenodd" d="M23.0092 0.562399C23.7835 -0.181556 25.0039 -0.184939 25.7822 0.537496L25.8559 0.609276L26.1076 0.874416C28.6568 3.62934 29.6068 6.83982 29.3631 9.97524C29.1159 13.1549 27.6554 16.1533 25.618 18.5228C23.5819 20.8907 20.8634 22.7555 17.9249 23.5649C14.9494 24.3844 11.6951 24.1231 8.87028 22.1196C6.47436 20.4202 5.56217 17.6737 5.5002 15.0056C4.15571 14.3431 2.74105 13.5197 1.25674 12.5183L0.86454 12.2507L0.78099 12.1901C-0.0616967 11.5433 -0.254376 10.3462 0.35979 9.4674C0.974142 8.58858 2.17039 8.3502 3.07474 8.9088L3.16173 8.96544L3.51904 9.20958C4.40821 9.80946 5.25665 10.3295 6.06342 10.7785C6.58386 8.94354 7.44624 7.18176 8.58228 5.72952C10.2843 3.55393 12.8362 1.81408 15.9624 2.07367C18.7783 2.30765 20.8589 3.76705 21.9329 5.82669C22.9727 7.82106 22.9882 10.2202 22.0793 12.2834C21.1528 14.3867 19.2718 16.1391 16.5659 16.8611C14.6186 17.3807 12.3373 17.345 9.76332 16.6492V16.6502C8.7387 16.3731 7.66488 15.9904 6.54264 15.4934C6.29088 15.382 6.07176 15.5523 6.54264 15.8479C7.86786 16.7929 9.7347 17.585 10.2749 17.8509C10.5302 18.2659 10.8469 18.6062 11.2097 18.8636C12.8797 20.0481 14.8333 20.2651 16.8495 19.7098C18.9026 19.1443 20.9605 17.7808 22.5566 15.9246C24.1514 14.0698 25.1797 11.8475 25.3492 9.66714C25.5091 7.6098 24.9181 5.49627 23.138 3.57566L22.9621 3.39059L22.8918 3.31442C22.1913 2.51767 22.2354 1.3063 23.0092 0.562399ZM15.6272 6.06012C14.3356 5.95285 12.9724 6.63594 11.7612 8.18418C10.8388 9.3633 10.1408 10.8954 9.78492 12.4719C12.3198 13.3425 14.2089 13.3484 15.5215 12.9983C17.0411 12.5928 17.9522 11.6748 18.3908 10.6793C18.847 9.64356 18.8002 8.51496 18.3578 7.66656C17.9495 6.8835 17.1275 6.1848 15.6272 6.06012Z" fill="#00DC33"/>
<path d="M82.6246 8.16156C81.5032 8.16156 80.7832 7.31562 80.9392 6.18078C81.0952 5.04595 82.048 4.2 83.17 4.2C84.2914 4.2 85.0114 5.04595 84.8554 6.18078C84.6994 7.31562 83.7466 8.16156 82.6246 8.16156Z" fill="#00390E"/>
<path d="M79.5664 19.2829L80.9686 9.09007H84.028L82.6258 19.2829H79.5664Z" fill="#00390E"/>
<path fill-rule="evenodd" clip-rule="evenodd" d="M84.9446 14.2898L83.6582 23.6366H86.7176L87.47 18.1688C87.9776 19.0766 88.9322 19.5512 90.1352 19.5512C92.42 19.5512 95.2634 17.8593 95.7512 14.3104C96.203 11.0297 94.2632 8.82198 91.061 8.82198C87.9812 8.82198 85.4156 10.8646 84.9446 14.2898ZM92.6684 14.1866C92.4668 15.6515 91.3892 16.6625 90.0026 16.6625C88.6154 16.6625 87.8162 15.6515 88.0178 14.1866C88.2194 12.7216 89.297 11.7106 90.6836 11.7106C92.0708 11.7106 92.87 12.7216 92.6684 14.1866Z" fill="#00390E"/>
<path d="M99.8253 19.5512C97.2351 19.5512 95.7555 18.1481 95.9841 16.188H99.0027C98.9493 16.7245 99.3003 16.9927 100.136 16.9927C101.074 16.9927 101.426 16.6625 101.485 16.2293C101.573 15.5936 100.946 15.4974 100.115 15.37L100.112 15.3694C100.054 15.3605 99.9951 15.3514 99.9351 15.3421C98.5767 15.1357 96.3405 14.785 96.6783 12.3296C96.9621 10.2663 98.7723 8.82198 101.281 8.82198C103.789 8.82198 105.138 10.2869 104.947 12.1232H101.969C101.952 11.6487 101.581 11.3805 100.969 11.3805C100.215 11.3805 99.8553 11.7725 99.7983 12.1852C99.7173 12.7761 100.372 12.8781 101.23 13.0118L101.355 13.0311C102.774 13.2374 104.943 13.6295 104.611 16.0436C104.322 18.1481 102.415 19.5512 99.8253 19.5512Z" fill="#00390E"/>
<path d="M117.107 13.547L116.318 19.283H119.378L120.167 13.547C120.355 12.1852 121.072 11.7106 121.99 11.7106C122.888 11.7106 123.475 12.1852 123.287 13.547L122.498 19.283H125.558L126.347 13.547C126.535 12.1852 127.252 11.7106 128.15 11.7106C129.068 11.7106 129.655 12.1852 129.468 13.547L128.678 19.283H131.738L132.527 13.547C132.979 10.2663 131.301 8.82198 128.853 8.82198C127.405 8.82198 126.145 9.37908 125.243 10.452C124.636 9.37908 123.509 8.82198 122.081 8.82198C119.634 8.82198 117.559 10.2663 117.107 13.547Z" fill="#00390E"/>
<path d="M105.743 14.3722C105.269 17.8179 107.029 19.5511 110.007 19.5511C112.985 19.5511 115.224 17.7973 115.696 14.3722L116.423 9.09007H113.363L112.637 14.3722C112.415 15.9815 111.546 16.6624 110.404 16.6624C109.262 16.6624 108.581 15.9815 108.802 14.3722L109.529 9.09007H106.469L105.743 14.3722Z" fill="#00390E"/>
<path fill-rule="evenodd" clip-rule="evenodd" d="M68.201 14.1866C67.7756 17.2816 69.707 19.5512 72.8888 19.5512C76.0706 19.5512 78.626 17.2816 79.052 14.1866C79.478 11.0916 77.5466 8.82198 74.3648 8.82198C71.183 8.82198 68.627 11.0916 68.201 14.1866ZM75.9518 14.1866C75.7502 15.6515 74.6726 16.6625 73.286 16.6625C71.8988 16.6625 71.0996 15.6515 71.3012 14.1866C71.5028 12.7216 72.5804 11.7106 73.967 11.7106C75.3542 11.7106 76.1534 12.7216 75.9518 14.1866Z" fill="#00390E"/>
<path fill-rule="evenodd" clip-rule="evenodd" d="M58.4608 18.5929C57.2249 17.646 56.612 16.069 56.871 14.1866C57.2968 11.0916 59.8526 8.82198 63.0341 8.82198C66.2159 8.82198 68.1473 11.0916 67.7219 14.1866C67.3103 17.1761 64.9115 19.3956 61.8815 19.5434C62.5949 19.9538 63.6317 20.2856 64.3937 20.5295C64.6481 20.611 64.8719 20.6827 65.0429 20.7442C65.7347 20.9192 66.1763 21.5713 66.0695 22.349C65.9441 23.2609 65.1119 24 64.2101 24H59.3143C57.5116 24 56.2537 22.5217 56.5045 20.698H61.7255C60.5327 20.2313 59.272 19.2977 58.4608 18.5929ZM61.9559 16.6625C63.3425 16.6625 64.4201 15.6515 64.6217 14.1866C64.8233 12.7216 64.0241 11.7106 62.6369 11.7106C61.2503 11.7106 60.1727 12.7216 59.9712 14.1866C59.7697 15.6515 60.5687 16.6625 61.9559 16.6625Z" fill="#00390E"/>
<path fill-rule="evenodd" clip-rule="evenodd" d="M45.539 14.1866C45.1132 17.2816 47.0445 19.5512 50.2263 19.5512C53.4082 19.5512 55.964 17.2816 56.3898 14.1866C56.8156 11.0916 54.8842 8.82198 51.7024 8.82198C48.5206 8.82198 45.9648 11.0916 45.539 14.1866ZM53.2896 14.1866C53.088 15.6515 52.0107 16.6625 50.6238 16.6625C49.2368 16.6625 48.4377 15.6515 48.6392 14.1866C48.8407 12.7216 49.9181 11.7106 51.305 11.7106C52.692 11.7106 53.4911 12.7216 53.2896 14.1866Z" fill="#00390E"/>
<path d="M34.8008 19.2829L36.6572 5.78879H39.9614L38.5307 16.1879H44.8332L44.4074 19.2829H34.8008Z" fill="#00390E"/>
</g>
<defs>
<clipPath id="clip0_700_156">
<rect width="132.6" height="24" fill="white"/>
</clipPath>
</defs>
</svg>
