<svg width="130" height="24" viewBox="0 0 130 24" fill="none" xmlns="http://www.w3.org/2000/svg">
<g clip-path="url(#clip0_700_110)">
<path d="M12 17.0614C9.91836 17.0614 7.9821 18.13 6.87126 19.8907L5.49258 22.076L6.02226 22.4107C6.18792 22.5061 6.35622 22.5973 6.52674 22.6849L7.88616 20.5313C8.7771 19.1189 10.3303 18.2622 12 18.2621C13.6698 18.2621 15.2228 19.1188 16.1138 20.5313L17.4727 22.6849C17.6432 22.5974 17.8115 22.5061 17.9771 22.4107L18.5074 22.076L17.1287 19.8907C16.0178 18.1299 14.0817 17.0614 12 17.0614ZM12.0738 21.8657L12 21.8627C11.6313 21.8629 11.2943 22.0644 11.1187 22.3843L11.086 22.45L10.4215 23.9004C10.8397 23.9554 11.2646 23.9893 11.6953 24L12 23.3348L12.3041 24C12.7349 23.9893 13.1601 23.9554 13.5785 23.9004L12.9146 22.45L12.8818 22.3843C12.718 22.0858 12.4134 21.8905 12.0738 21.8657ZM12.6 7.44378V0H11.4V7.44378L9.47346 0.253753L8.31444 0.564351L10.2404 7.7538L6.51972 1.30803L5.48027 1.90813L9.201 8.35332L3.93926 3.09074L3.09023 3.93991L8.35194 9.2025L1.90781 5.48117L1.30781 6.5208L7.75254 10.2421L0.564258 8.31582L0.253711 9.47502L7.44318 11.4019H0V12.6021H7.44318L0.253711 14.5289L0.564258 15.6881L7.75254 13.7612L1.30781 17.4832L1.90781 18.5228L8.35194 14.8009L3.09023 20.0641L3.93926 20.9132L7.87296 16.9778C8.2104 16.6402 8.4 16.1824 8.4 15.705V12.261C8.4 10.2725 10.0119 8.66052 12 8.6604C13.9882 8.6604 15.6 10.2725 15.6 12.261V15.7055C15.6 16.183 15.7896 16.6408 16.1271 16.9784L20.0608 20.9132L20.9098 20.0641L15.6481 14.8015L22.0922 18.5228L22.6922 17.4832L16.2475 13.7612L23.4358 15.6881L23.7463 14.5289L16.5574 12.6021H24V11.4019H16.5568L23.7463 9.47502L23.4358 8.31582L16.2475 10.2415L22.6922 6.5208L22.0922 5.48117L15.6469 9.2025L20.9098 3.93932L20.0613 3.09074L14.7985 8.35392L18.5197 1.90813L17.4803 1.30803L13.759 7.7538L15.6856 0.564351L14.5265 0.253753L12.6 7.44378ZM12 19.4623C10.8073 19.4624 9.70752 20.1067 9.1242 21.1472L7.92126 23.2921C8.30442 23.4306 8.69652 23.5501 9.09666 23.6495L10.1707 21.7344C10.5416 21.0725 11.2414 20.6626 12 20.6626C12.7587 20.6626 13.4583 21.0725 13.8293 21.7344L14.9027 23.6495C15.3029 23.5501 15.695 23.4305 16.0781 23.2921L14.8758 21.1472C14.2925 20.1067 13.1927 19.4623 12 19.4623Z" fill="#FF2121"/>
<path d="M125.218 8.22906C126.055 8.22906 126.801 8.40174 127.457 8.7471C128.127 9.09246 128.648 9.60408 129.022 10.282C129.407 10.9599 129.601 11.7785 129.601 12.7378V18.9733H127.419V13.064C127.419 12.1174 127.181 11.3948 126.704 10.8959C126.228 10.3843 125.578 10.1285 124.754 10.1285C123.931 10.1285 123.274 10.3843 122.785 10.8959C122.309 11.3948 122.071 12.1174 122.071 13.064V18.9733H119.889V13.064C119.889 12.1174 119.651 11.3948 119.174 10.8959C118.698 10.3843 118.048 10.1285 117.224 10.1285C116.401 10.1285 115.744 10.3843 115.255 10.8959C114.779 11.3948 114.541 12.1174 114.541 13.064V18.9733H112.34V8.40174H114.541V9.61044C114.901 9.17556 115.358 8.83662 115.912 8.59362C116.465 8.35056 117.057 8.22906 117.688 8.22906C118.537 8.22906 119.297 8.40816 119.966 8.7663C120.635 9.12444 121.15 9.64242 121.511 10.3204C121.832 9.68082 122.335 9.17556 123.017 8.80464C123.699 8.42094 124.433 8.22906 125.218 8.22906Z" fill="#540000"/>
<path d="M110.11 8.40174V18.9732H107.909V17.7262C107.562 18.161 107.105 18.5063 106.539 18.7622C105.985 19.0052 105.393 19.1267 104.762 19.1267C103.926 19.1267 103.173 18.9541 102.503 18.6087C101.847 18.2633 101.325 17.7517 100.939 17.0738C100.566 16.3959 100.379 15.5773 100.379 14.618V8.40174H102.561V14.2918C102.561 15.2383 102.799 15.9674 103.275 16.4791C103.752 16.9779 104.401 17.2273 105.225 17.2273C106.049 17.2273 106.699 16.9779 107.176 16.4791C107.665 15.9674 107.909 15.2383 107.909 14.2918V8.40174H110.11Z" fill="#540000"/>
<path d="M94.7004 19.1459C93.8634 19.1459 93.1104 18.9988 92.4414 18.7046C91.785 18.3977 91.2636 17.9884 90.8772 17.4767C90.4914 16.9523 90.285 16.3703 90.2598 15.7308H92.538C92.5764 16.1785 92.7888 16.5558 93.1752 16.8628C93.5742 17.157 94.0698 17.3041 94.6614 17.3041C95.2794 17.3041 95.7558 17.189 96.0906 16.9587C96.438 16.7157 96.612 16.4087 96.612 16.0378C96.612 15.6413 96.4188 15.3471 96.0324 15.1552C95.6592 14.9634 95.0604 14.7523 94.2366 14.5221C93.4386 14.3047 92.7888 14.0936 92.2866 13.889C91.785 13.6843 91.347 13.3709 90.9738 12.9488C90.6132 12.5267 90.4332 11.9704 90.4332 11.2796C90.4332 10.7168 90.6006 10.2052 90.9354 9.74478C91.2702 9.2715 91.746 8.90058 92.364 8.63196C92.9946 8.3634 93.7158 8.22906 94.5264 8.22906C95.7366 8.22906 96.708 8.53602 97.4418 9.15C98.1888 9.75114 98.5878 10.5761 98.6388 11.625H96.438C96.3996 11.1517 96.2064 10.7744 95.859 10.493C95.511 10.2116 95.0412 10.0709 94.449 10.0709C93.87 10.0709 93.426 10.1797 93.117 10.3971C92.808 10.6145 92.6538 10.9023 92.6538 11.2604C92.6538 11.5418 92.7564 11.7785 92.9628 11.9704C93.1686 12.1622 93.4194 12.3157 93.7158 12.4308C94.0116 12.5332 94.449 12.6674 95.0286 12.8337C95.8008 13.0384 96.4314 13.2494 96.9204 13.4669C97.4226 13.6715 97.854 13.9785 98.214 14.3878C98.5746 14.7971 98.7612 15.3407 98.7744 16.0186C98.7744 16.6198 98.607 17.157 98.2722 17.6302C97.9374 18.1035 97.461 18.4744 96.8436 18.743C96.2382 19.0116 95.5242 19.1459 94.7004 19.1459Z" fill="#540000"/>
<path d="M80.6285 9.9558C81.0023 9.4698 81.5105 9.06048 82.1543 8.7279C82.7975 8.39538 83.5247 8.22906 84.3359 8.22906C85.2629 8.22906 86.1059 8.45928 86.8649 8.91978C87.6377 9.36744 88.2425 10.0006 88.6799 10.8192C89.1179 11.6378 89.3363 12.5779 89.3363 13.6396C89.3363 14.7011 89.1179 15.6541 88.6799 16.4983C88.2425 17.3297 87.6377 17.982 86.8649 18.4552C86.1059 18.9157 85.2629 19.1459 84.3359 19.1459C83.5247 19.1459 82.8041 18.986 82.1735 18.6663C81.5429 18.3337 81.0281 17.9244 80.6285 17.4384V24H78.4277V8.40174H80.6285V9.9558ZM87.0971 13.6396C87.0971 12.9104 86.9423 12.2837 86.6333 11.7593C86.3375 11.2221 85.9385 10.8192 85.4363 10.5506C84.9473 10.2692 84.4193 10.1285 83.8529 10.1285C83.2997 10.1285 82.7717 10.2692 82.2701 10.5506C81.7811 10.832 81.3815 11.2413 81.0731 11.7785C80.7767 12.3157 80.6285 12.9488 80.6285 13.6779C80.6285 14.407 80.7767 15.0465 81.0731 15.5965C81.3815 16.1337 81.7811 16.543 82.2701 16.8244C82.7717 17.1058 83.2997 17.2465 83.8529 17.2465C84.4193 17.2465 84.9473 17.1058 85.4363 16.8244C85.9385 16.5302 86.3375 16.1081 86.6333 15.5581C86.9423 15.0082 87.0971 14.3686 87.0971 13.6396Z" fill="#540000"/>
<path d="M75.134 7.00116C74.735 7.00116 74.4002 6.86688 74.1302 6.59826C73.8596 6.32964 73.7246 5.99709 73.7246 5.60058C73.7246 5.20407 73.8596 4.87151 74.1302 4.6029C74.4002 4.3343 74.735 4.2 75.134 4.2C75.5204 4.2 75.8486 4.3343 76.1186 4.6029C76.3892 4.87151 76.5242 5.20407 76.5242 5.60058C76.5242 5.99709 76.3892 6.32964 76.1186 6.59826C75.8486 6.86688 75.5204 7.00116 75.134 7.00116ZM76.2152 8.40174V18.9733H74.0144V8.40174H76.2152Z" fill="#540000"/>
<path d="M66.9907 19.1459C65.9869 19.1459 65.0791 18.9221 64.2685 18.4744C63.4573 18.014 62.8201 17.3744 62.3569 16.5558C61.8937 15.7244 61.6621 14.7651 61.6621 13.6779C61.6621 12.6035 61.8997 11.6506 62.3761 10.8192C62.8525 9.98778 63.5023 9.34824 64.3261 8.90058C65.1499 8.45292 66.0703 8.22906 67.0873 8.22906C68.1043 8.22906 69.0247 8.45292 69.8485 8.90058C70.6723 9.34824 71.3221 9.98778 71.7985 10.8192C72.2749 11.6506 72.5125 12.6035 72.5125 13.6779C72.5125 14.7523 72.2683 15.7052 71.7793 16.5366C71.2897 17.368 70.6207 18.014 69.7711 18.4744C68.9347 18.9221 68.0077 19.1459 66.9907 19.1459ZM66.9907 17.2465C67.5571 17.2465 68.0851 17.1122 68.5741 16.8436C69.0763 16.575 69.4813 16.1721 69.7903 15.6349C70.0993 15.0977 70.2535 14.4454 70.2535 13.6779C70.2535 12.9104 70.1059 12.2645 69.8095 11.7401C69.5137 11.2029 69.1213 10.8 68.6317 10.5314C68.1427 10.2628 67.6153 10.1285 67.0489 10.1285C66.4825 10.1285 65.9545 10.2628 65.4655 10.5314C64.9891 10.8 64.6093 11.2029 64.3261 11.7401C64.0429 12.2645 63.9013 12.9104 63.9013 13.6779C63.9013 14.8163 64.1911 15.6988 64.7707 16.3256C65.3623 16.9396 66.1027 17.2465 66.9907 17.2465Z" fill="#540000"/>
<path d="M55.3543 19.1459C54.3503 19.1459 53.4428 18.9221 52.6319 18.4744C51.821 18.014 51.1838 17.3744 50.7204 16.5558C50.2571 15.7244 50.0254 14.7651 50.0254 13.6779C50.0254 12.6035 50.2635 11.6506 50.7398 10.8192C51.216 9.98778 51.866 9.34824 52.6898 8.90058C53.5136 8.45292 54.434 8.22906 55.4508 8.22906C56.4677 8.22906 57.388 8.45292 58.2118 8.90058C59.0356 9.34824 59.6856 9.98778 60.1617 10.8192C60.6381 11.6506 60.8763 12.6035 60.8763 13.6779C60.8763 14.7523 60.6315 15.7052 60.1425 16.5366C59.6535 17.368 58.9841 18.014 58.1346 18.4744C57.2979 18.9221 56.3712 19.1459 55.3543 19.1459ZM55.3543 17.2465C55.9206 17.2465 56.4484 17.1122 56.9375 16.8436C57.4395 16.575 57.845 16.1721 58.1539 15.6349C58.4628 15.0977 58.6173 14.4454 58.6173 13.6779C58.6173 12.9104 58.4693 12.2645 58.1732 11.7401C57.8772 11.2029 57.4845 10.8 56.9954 10.5314C56.5063 10.2628 55.9785 10.1285 55.4122 10.1285C54.8459 10.1285 54.3181 10.2628 53.829 10.5314C53.3527 10.8 52.973 11.2029 52.6898 11.7401C52.4066 12.2645 52.2651 12.9104 52.2651 13.6779C52.2651 14.8163 52.5547 15.6988 53.1339 16.3256C53.726 16.9396 54.4661 17.2465 55.3543 17.2465Z" fill="#540000"/>
<path d="M43.7176 19.1459C42.7136 19.1459 41.8061 18.9221 40.9952 18.4744C40.1843 18.014 39.5471 17.3744 39.0837 16.5558C38.6203 15.7244 38.3887 14.7651 38.3887 13.6779C38.3887 12.6035 38.6268 11.6506 39.103 10.8192C39.5793 9.98778 40.2293 9.34824 41.0531 8.90058C41.8769 8.45292 42.7972 8.22906 43.8141 8.22906C44.831 8.22906 45.7513 8.45292 46.5751 8.90058C47.3989 9.34824 48.0489 9.98778 48.5252 10.8192C49.0014 11.6506 49.2396 12.6035 49.2396 13.6779C49.2396 14.7523 48.995 15.7052 48.5059 16.5366C48.0167 17.368 47.3474 18.014 46.4979 18.4744C45.6612 18.9221 44.7344 19.1459 43.7176 19.1459ZM43.7176 17.2465C44.2839 17.2465 44.8117 17.1122 45.3008 16.8436C45.8028 16.575 46.2083 16.1721 46.5172 15.6349C46.8261 15.0977 46.9806 14.4454 46.9806 13.6779C46.9806 12.9104 46.8325 12.2645 46.5365 11.7401C46.2405 11.2029 45.8479 10.8 45.3588 10.5314C44.8696 10.2628 44.3419 10.1285 43.7755 10.1285C43.2091 10.1285 42.6814 10.2628 42.1923 10.5314C41.716 10.8 41.3363 11.2029 41.0531 11.7401C40.77 12.2645 40.6284 12.9104 40.6284 13.6779C40.6284 14.8163 40.918 15.6988 41.4972 16.3256C42.0893 16.9396 42.8294 17.2465 43.7176 17.2465Z" fill="#540000"/>
<path d="M33.4003 17.2081H37.9376V18.9733H31.1992V5.63894H33.4003V17.2081Z" fill="#540000"/>
<path d="M49.9844 19.4389C50.0887 20.0967 50.2933 20.6991 50.5981 21.2461C51.0615 22.0647 51.6987 22.7042 52.5096 23.1647C53.3205 23.6124 54.228 23.8363 55.232 23.8363C56.2489 23.8363 57.1756 23.6124 58.0123 23.1647C58.8618 22.7042 59.5312 22.0583 60.0203 21.2269C60.3401 20.683 60.5555 20.087 60.6665 19.4389H58.3777C58.3005 19.7628 58.1851 20.0582 58.0316 20.3252C57.7226 20.8624 57.3172 21.2653 56.8152 21.5339C56.3261 21.8025 55.7983 21.9368 55.232 21.9368C54.3438 21.9368 53.6037 21.6298 53.0116 21.0159C52.6289 20.6018 52.3727 20.0762 52.2428 19.4389H49.9844Z" fill="#540000"/>
</g>
<defs>
<clipPath id="clip0_700_110">
<rect width="129.6" height="24" fill="white"/>
</clipPath>
</defs>
</svg>
