<svg width="182" height="24" viewBox="0 0 182 24" fill="none" xmlns="http://www.w3.org/2000/svg">
<g clip-path="url(#clip0_700_144)">
<path fill-rule="evenodd" clip-rule="evenodd" d="M14.1176 0C14.3513 0 14.5835 0.00559895 14.8144 0.0168194C14.819 0.0170434 14.8228 0.0133699 14.8228 0.00875796C14.8228 0.00430179 14.8265 0.00068934 14.8309 0.00068934H27.7362C28.0119 0.00082779 28.2353 0.22408 28.2353 0.49977C28.2353 0.632136 28.1827 0.75909 28.0892 0.852714L24.7052 4.23529H31.9218C32.3988 4.23529 32.8349 4.51616 33.0011 4.96322C33.5708 6.495 33.8824 8.15226 33.8824 9.88236C33.8824 17.6793 27.5617 24 19.7647 24C19.5312 24 19.2991 23.9938 19.0684 23.9825C19.0636 23.9823 19.0595 23.9861 19.0595 23.9909C19.0595 23.9956 19.0558 23.9993 19.0511 23.9993H6.14616C5.87048 23.9992 5.64706 23.7759 5.64706 23.5003C5.64707 23.3678 5.69963 23.2409 5.7932 23.1473L9.1758 19.7647H1.96054C1.48358 19.7647 1.04745 19.4839 0.881208 19.0368C0.311597 17.505 0 15.8477 0 14.1176C0 6.3207 6.3207 0 14.1176 0ZM18.9485 9.99336C17.7833 8.6298 16.0519 7.76472 14.1176 7.76472C10.609 7.76472 7.76472 10.609 7.76472 14.1176C7.76472 14.8603 7.89312 15.5728 8.1273 16.2353H12.7052L14.9338 14.0066C16.099 15.3702 17.8305 16.2353 19.7647 16.2353C23.2733 16.2353 26.1176 13.391 26.1176 9.88236C26.1176 9.13968 25.9892 8.42718 25.7551 7.76472H21.1772L18.9485 9.99336Z" fill="#3754FA"/>
<path d="M174.609 18.1043V9.66187C174.609 9.41857 174.39 9.19957 174.146 9.19957H173.83C173.635 9.19957 173.465 9.32125 173.392 9.49153L170.448 16.4499C170.035 17.4717 169.037 18.1043 167.942 18.1043C166.848 18.1043 165.874 17.4717 165.46 16.4499L162.492 9.49153C162.444 9.32125 162.273 9.19957 162.079 9.19957H161.763C161.519 9.19957 161.3 9.41857 161.3 9.66187V18.1043H158.551V9.66187C158.551 7.88581 159.987 6.42601 161.763 6.42601H162.079C163.368 6.42601 164.536 7.20457 165.047 8.42101L167.942 15.2821L170.838 8.42101C171.348 7.20457 172.516 6.42601 173.83 6.42601H174.146C175.923 6.42601 177.358 7.88581 177.358 9.66187V18.1043H174.609Z" fill="#211A43"/>
<path d="M146.004 18.1043C143.206 18.1043 140.943 15.8416 140.943 13.0437V6.42601H143.693V13.0437C143.693 14.3089 144.739 15.355 146.004 15.355H151.844C153.108 15.355 154.155 14.3089 154.155 13.0437V6.42601H156.904V13.0437C156.904 15.8416 154.641 18.1043 151.844 18.1043H146.004Z" fill="#211A43"/>
<path d="M135.876 15.355C136.339 15.355 136.728 14.9657 136.728 14.5035C136.728 14.0412 136.363 13.6763 135.925 13.6519H129.429C127.434 13.6519 125.828 12.0462 125.828 10.0511C125.828 8.05609 127.434 6.42601 129.429 6.42601H139.502V9.19957H129.429C128.967 9.19957 128.577 9.58885 128.577 10.0511C128.577 10.5134 128.967 10.9027 129.429 10.9027H135.974C137.92 10.9513 139.502 12.5328 139.502 14.5035C139.502 16.4986 137.871 18.1043 135.876 18.1043H125.828V15.355H135.876Z" fill="#211A43"/>
<path d="M110.391 18.1043V9.66187C110.391 7.88581 111.826 6.42601 113.602 6.42601H120.682C122.969 6.42601 124.818 8.29939 124.818 10.5864C124.818 12.8734 122.969 14.7468 120.682 14.7468H113.14V18.1043H110.391ZM113.14 9.66187V11.9732H120.682C121.437 11.9732 122.069 11.3406 122.069 10.5864C122.069 9.83215 121.437 9.19957 120.682 9.19957H113.602C113.359 9.19957 113.14 9.41857 113.14 9.66187Z" fill="#211A43"/>
<path d="M105.76 6.42601H108.509V18.1043H105.76V6.42601Z" fill="#211A43"/>
<path d="M98.4763 15.355C100.18 15.355 101.566 13.9682 101.566 12.2652C101.566 10.5864 100.18 9.19957 98.4763 9.19957H94.1941C92.4913 9.19957 91.1047 10.5864 91.1047 12.2652C91.1047 13.9682 92.4913 15.355 94.1941 15.355H98.4763ZM98.4763 6.42601C101.712 6.42601 104.315 9.05359 104.315 12.2652C104.315 15.501 101.712 18.1043 98.4763 18.1043H94.1941C90.9583 18.1043 88.3555 15.501 88.3555 12.2652C88.3555 9.05359 90.9583 6.42601 94.1941 6.42601H98.4763Z" fill="#211A43"/>
<path d="M77.6576 18.1043C74.4218 18.1043 71.8184 15.501 71.8184 12.2652C71.8184 9.05359 74.4218 6.42601 77.6576 6.42601H86.1002V9.19957H77.6576C75.9548 9.19957 74.5682 10.5864 74.5682 12.2652C74.5682 13.9682 75.9548 15.355 77.6576 15.355H83.8622C84.3242 15.355 84.7136 14.9657 84.7136 14.5035C84.7136 14.0412 84.3242 13.6519 83.8622 13.6519H77.1956V10.9027H83.8622C85.8572 10.9027 87.4868 12.5085 87.4868 14.5035C87.4868 16.4986 85.8572 18.1043 83.8622 18.1043H77.6576Z" fill="#211A43"/>
<path d="M65.0707 15.355C66.7735 15.355 68.1601 13.9682 68.1601 12.2652C68.1601 10.5864 66.7735 9.19957 65.0707 9.19957H60.7885C59.0853 9.19957 57.6985 10.5864 57.6985 12.2652C57.6985 13.9682 59.0853 15.355 60.7885 15.355H65.0707ZM65.0707 6.42601C68.3065 6.42601 70.9093 9.05359 70.9093 12.2652C70.9093 15.501 68.3065 18.1043 65.0707 18.1043H60.7885C57.5525 18.1043 54.9492 15.501 54.9492 12.2652C54.9492 9.05359 57.5525 6.42601 60.7885 6.42601H65.0707Z" fill="#211A43"/>
<path d="M43.6907 14.8927C43.6907 15.136 43.9096 15.355 44.1529 15.355H54.4445V18.1043H44.1529C42.3768 18.1043 40.9414 16.6688 40.9414 14.8927V6.35297H43.6907V14.8927Z" fill="#211A43"/>
<path d="M180.706 6.35298C180.706 7.13268 180.074 7.76472 179.295 7.76472C178.515 7.76472 177.883 7.13268 177.883 6.35298C177.883 5.57328 178.515 4.94121 179.295 4.94121C180.074 4.94121 180.706 5.57328 180.706 6.35298Z" fill="#211A43"/>
</g>
<defs>
<clipPath id="clip0_700_144">
<rect width="181.2" height="24" fill="white"/>
</clipPath>
</defs>
</svg>
